<svg width="210" height="100" xmlns="http://www.w3.org/2000/svg" xmlns:svg="http://www.w3.org/2000/svg">
 <g class="layer">
  <title>Layer 1</title>
  <g class="layer" id="svg_9">
   <title/>
   <line fill="none" id="svg_1" stroke="#00ff00" stroke-width="5" x1="33.5" x2="57.5" y1="42.5" y2="13.5"/>
   <line fill="none" id="svg_3" stroke="#00ff00" stroke-width="5" x1="55.5" x2="81.5" y1="13.5" y2="43.5"/>
   <line fill="none" id="svg_4" stroke="#00e5ff" stroke-width="5" x1="81.5" x2="98.5" y1="41.5" y2="21.5"/>
   <line fill="none" id="svg_5" stroke="#00e5ff" stroke-width="5" x1="97.5" x2="114.5" y1="19.5" y2="41.5"/>
   <ellipse cx="144.5" cy="59.5" fill="#00ffff" id="svg_7" rx="32" ry="34" stroke="#00e5ff" stroke-width="5"/>
   <path d="m119.5,31.5c0.64667,1.60001 1.36526,2.03419 2.13867,2.60001c0.7392,0.54079 0.98602,1.43346 1.472,2c0.63756,0.74324 1.63312,1.05482 2.26799,1.62132c0.60011,0.53548 0.93008,1.44487 1.64217,1.75784c0.80537,0.35397 1.69467,0.28868 2.27917,0.82216c0.71971,0.65688 1.50856,1.06308 2.39999,1.2c0.9158,0.14067 1.50113,0.70204 2.2,1.39867c0.60097,0.59904 0.99245,1.30853 1.60001,2.07918c0.49265,0.62489 1.5,0.52083 2.39999,0.52083c0.90001,0 1.8,0 2.70001,0c0.89999,0 1.45439,0.41769 2.12149,0.87849c0.72971,0.50406 1.77937,0.15871 2.57851,0.12151c0.91763,-0.04271 1.2,-1 1.2,-1.8c0,-0.89999 -0.04195,-1.74022 0.284,-2.68399c0.24461,-0.7083 0.67329,-1.62759 0.716,-2.51601c0.03842,-0.79909 0.42317,-1.82951 -0.05716,-2.64284c-0.38962,-0.65971 -1.3652,-1.04337 -2.24284,-1.3c-0.86555,-0.25311 -1.8,-0.05716 -2.7,-0.05716c-0.8,0 -1.7,0 -2.60001,0c-0.89999,0 -1.83482,0.24287 -2.6955,-0.0045c-0.7679,-0.22072 -1.30698,-0.62701 -2.18367,-1.01633c-0.71089,-0.31569 -1.37508,-1.02313 -1.5195,-1.7805c-0.16833,-0.88277 -0.44254,-1.9243 0.03467,-2.76266c0.3936,-0.6915 1.58321,-0.27078 2.464,-0.45683c0.8474,-0.17899 1.4874,-0.89413 2.3,-0.97784c0.89526,-0.09221 1.83652,-0.02988 2.68266,0c0.80891,0.02856 1.51404,0.78937 2.31866,0.99734c0.8167,0.21109 1.64482,0.54889 2.11334,1.28667c0.43912,0.69147 0.05997,1.71506 0.08533,2.51466c0.02859,0.90135 0.6862,1.62236 0.94284,2.5c0.25311,0.86555 0.05716,1.8 0.05716,2.7c0,0.8 -0.21599,1.54803 -0.83333,2.16667c-0.61765,0.61896 -0.97353,1.50386 -1.6875,1.8125c-0.80722,0.34895 -1.77917,0.02083 -2.67917,0.02083c-0.90001,0 -1.83925,0.17644 -2.60001,-0.08533c-0.77956,-0.26823 -1.39999,-1.11467 -2,-1.71468c-0.59999,-0.59999 -1.30231,-1.2977 -1.89999,-1.89999c-0.69202,-0.69734 -1.23912,-1.39389 -1.3,-2.3c-0.05363,-0.7982 0,-1.7 0,-2.60001c0,-0.89999 -0.11099,-1.91626 0.52083,-2.39999c0.67732,-0.51857 1.15012,-1.22977 1.7005,-1.87866c0.56084,-0.66122 1.21417,-1.10333 2.17867,-1.12134c0.89986,-0.0168 2.05276,-0.33107 2.51468,0.28534c0.55087,0.73512 0.47473,2.06204 -0.13617,2.59315c-0.6693,0.58188 -1.7785,0.12151 -2.57851,0.12151c-0.95717,0 -1.85269,0.00714 -2.54733,0c-1.03816,-0.01067 -1.99213,-0.32246 -2.658,-0.70534c-0.7511,-0.43187 -1.65956,-0.96567 -2.32266,-1.23332c-0.86971,-0.35104 -1.69829,-0.82379 -2.37199,-1.11401c-0.8418,-0.36263 -1.60297,-0.91763 -1.49733,-0.94733c0.86386,-0.24275 1.79733,0 2.69733,0c0.89999,0 1.80653,-0.10696 2.7,0.00133c0.91978,0.11148 1.45409,0.80855 2.40001,0.98801c0.88428,0.16777 1.79999,0.01067 2.7,0.01067c0.89999,0 1.8,0 2.7,0c0.8,0 1.77841,-0.00641 1.99867,-0.80133c0.24498,-0.88412 0.77959,-1.32237 1.60133,-1.77334c0.77997,-0.42804 1.72217,-0.62238 2.59866,-0.424c0.80847,0.18299 0.97833,1.33556 1.60266,1.71333c0.80554,0.48741 1.87724,-0.05772 2.67784,0.30617c0.77324,0.35146 1.22551,0.96021 2.12083,0.97917c0.96445,0.02043 1.40356,0.78073 2.20132,0.99867c0.88499,0.24178 1.46802,0.69673 2.11467,1.28532c0.63464,0.57765 1.07358,1.23665 1.084,2.116c0.01067,0.89995 0,1.8 0,2.70001c0,0.89999 -0.11768,1.68109 -0.57466,2.5c-0.43121,0.77272 -1.15092,1.27391 -1.41467,2.01067c-0.29976,0.83736 -0.07761,1.73288 -0.58533,2.41466c-0.47722,0.64081 -0.62555,1.37546 -1.14134,2.05867c-0.46455,0.61534 -0.65475,1.34489 -1.16249,2.1375c-0.47829,0.74663 0.18964,1.54208 0.82582,2.13116c0.57559,0.53299 0.98927,1.42212 1.75717,1.64284c0.86067,0.24738 1.7955,0.0045 2.6955,0.0045c0.90001,0 1.8,0 2.70001,0c0.89999,0 1.7,0 2.59999,0c0.90001,0 1.8,0 2.7,0c0.90001,0 1.8,0 2.70001,0c0.89999,0 1.7,0 2.59999,0c0.90001,0 1.70627,-0.09636 2.35268,-0.64734c0.6044,-0.51515 0.94733,-1.35266 0.94733,-2.15266c0,-0.89999 0,-1.8 0,-2.7c0,-0.89999 0.00009,-1.8 0,-2.7c-0.00009,-0.89984 -0.21523,-1.73911 -1.10001,-1.8c-0.89787,-0.0618 -1.7,0 -2.59999,0c-0.90001,0 -1.8,0 -2.7,0c-0.90001,0 -1.8,0 -2.70001,0c-0.89999,0 -1.7,0 -2.59999,0c-0.90001,0 -1.8,-0.00226 -2.7,0c-0.89552,0.00226 -1.582,0.43544 -1.60001,1.3c-0.01874,0.8998 -0.19795,1.89859 0.284,2.61732c0.44193,0.65903 0.53867,1.66353 1.32668,2.06134c0.77621,0.39186 1.39139,0.63089 2.09383,1.07401c0.7719,0.48692 1.5983,0.92952 2.46217,0.94733c0.8334,0.01718 1.79843,-0.24557 2.42267,-0.57466c0.87245,-0.45993 1.37935,-1.13103 1.98,-1.62401c0.69551,-0.57085 1.73012,-0.66562 2.40533,-1.22667c0.60977,-0.50667 1.28426,-0.99585 2.12517,-1.45332c0.74736,-0.40657 1.29189,-1.50043 0.61482,-2.03601c-0.64243,-0.50818 -1.71466,-0.08533 -2.47183,-0.08533c-1.06816,0 -1.77837,-0.17331 -2.722,0.02083c-0.8672,0.17841 -1.66589,0.74332 -2.52083,1.14584c-0.68362,0.32187 -1.49817,0.67876 -2.34734,0.886c-0.92163,0.22493 -1.53476,0.6703 -2.46733,0.922c-0.94063,0.25388 -1.23438,1.15192 -1.832,1.58932c-0.73296,0.53647 -1.81151,0.26596 -2.59166,0.79317c-0.81248,0.54906 -1.2081,1.45581 -1.14034,1.64284c0.32137,0.88692 1.57883,-0.47513 2.21199,-1.16667c0.54756,-0.59804 0.98059,-1.25719 1.45201,-2.03333c0.41081,-0.67638 1.27736,-1.25435 1.63066,-2c0.40695,-0.85886 0.894,-1.45406 1.07333,-2.40001c0.17152,-0.90477 0.01212,-1.88399 0.01067,-2.57466c-0.00226,-1.06816 -0.10738,-2.05394 -0.7045,-2.46817c-0.78896,-0.54732 -1.8452,-0.27771 -2.60001,-0.71432c-0.63293,-0.36612 -1.31638,-1.01135 -2.2115,-1.3575c-0.8244,-0.31879 -1.84064,-0.14879 -2.68399,-0.56934c-0.66165,-0.32993 -1.49998,-0.71375 -2.436,-0.716c-0.84799,-0.00204 -1.71133,0 -2.60683,0c-0.95717,0 -1.85718,0 -2.75717,0c-0.8,0 -1.81339,-0.3934 -2.564,0.036c-0.69064,0.3951 -0.44141,1.56403 -0.436,2.464c0.00534,0.88937 0.64632,1.30965 1.38933,1.936c0.63054,0.53156 0.95781,1.39661 1.558,1.91666c0.65361,0.56635 1.29054,1.14647 2.21935,1.48067c0.75745,0.27254 1.28197,-0.04892 0.66666,-0.66666c-0.61678,-0.6192 -0.67979,-1.41513 -1,-2.16667c-0.33284,-0.78119 -0.70935,-1.56783 -1.19049,-2.3c-0.52193,-0.79425 -1.20981,-1.33504 -1.84283,-1.89867c-0.76266,-0.67906 -1.2282,-1.17113 -2.0215,-1.67982c-0.74657,-0.47873 -1.77937,-0.0843 -2.57851,-0.12151c-0.91763,-0.04271 -1.11249,-0.95442 -1.81067,-1.564c-0.66658,-0.58199 -1.68933,-0.436 -2.58932,-0.436c-0.90001,0 -1.8,0 -2.60001,0c-0.89999,0 -1.8,0 -2.7,0c-0.87866,0 -0.81673,0.39786 -0.14284,0.94733c0.7034,0.57353 1.47098,0.70137 2.34283,1.10535c0.83163,0.38535 1.49698,0.90462 2.40001,0.94733c0.89899,0.04253 1.67986,0.11987 2.5,0.57466c0.78221,0.43375 1.5072,0.87828 2.39999,1.25867c0.75154,0.32021 1.7,0.16667 2.60001,0.16667c0.89999,0 1.79999,0 2.7,0c0.89999,0 1.8,0 2.7,0c0.8,0 1.79689,0.36317 2.564,-0.036c0.75938,-0.39514 0.98129,-1.41376 1.72134,-1.87868c0.77686,-0.48804 1.47594,-0.44698 1.93616,-1.18517c0.4471,-0.71716 1.59419,-0.89302 1.77718,-1.70149c0.19838,-0.8765 0.00133,-1.79868 0.00133,-2.69867c0,-0.9 -0.00298,-1.79095 0,-1.69733c0.02859,0.8987 0.50316,1.69547 0.916,2.396c0.44003,0.74667 1.16158,1.2274 1.65866,1.82666c0.5101,0.61496 0.41994,1.57469 0.42534,2.47467c0.00534,0.88937 0.4413,1.65579 1.05267,2.14734c0.64452,0.51819 1.64732,0.35266 2.54733,0.35266c0.92799,0 0.44171,-0.23395 -0.3,-0.64734c-0.76369,-0.42563 -1.53964,-0.84691 -2.46667,-1.18599c-0.81731,-0.29895 -1.8405,-0.31178 -2.42883,-0.51933c-0.75757,-0.26726 -1.79631,-0.56364 -2.726,-0.86867c-0.71529,-0.23468 -1.67224,-0.6581 -2.46783,-0.74268c-0.72209,-0.07677 -1.8,-0.036 -2.61066,-0.036c-0.90001,0 -1.8,0 -2.70001,0c-0.89999,0 -1.79414,-0.06125 -2.55266,-0.35266c-0.87437,-0.33592 -1.71082,-0.62933 -2.65184,-0.64734c-0.86201,-0.01649 -1.6955,0 -2.674,0c-0.82016,0 -1.7215,-0.05716 -2.5215,-0.5c-0.8,-0.44284 -1.7,-0.5 -2.60001,-0.5c-0.89999,0 -1.7,0 -2.59999,0c-0.90001,0 -1.8573,0.30359 -2.68933,-0.01067c-0.70207,-0.26517 -0.22281,-1.30055 0.556,-1.82267c0.70589,-0.47323 2.19189,-0.95016 2.46399,-0.16533c0.26335,0.75964 -1.32092,0.65491 -2.10983,1.01949c-0.77101,0.35631 -1.32237,0.95979 -2.22083,0.97917c-0.86455,0.01865 -1.63,0.45164 -2.13333,1.16667c-0.48918,0.69492 -0.16667,1.63333 -0.16667,2.53333c0,0.90001 0,1.8 0,2.7c0,0.90001 -0.16371,1.8573 0.22133,2.70001c0.3058,0.6693 0.77333,1.49995 0.77867,2.39999c0.00533,0.89998 -0.13655,1.85664 0.284,2.7c0.32993,0.66165 0.71375,1.49998 0.716,2.40001c0.00224,0.89999 0.18242,2.04208 -0.52083,2.37917c-0.78369,0.37566 -1.59105,0.50021 -2.12651,1.0735c-0.64,0.68521 -1.35266,0.94733 -2.15266,0.94733c-0.89999,0 -1.87857,0.34306 -2.67917,-0.02083c-0.77324,-0.35146 -1.37721,-1.03098 -1.52083,-1.97917c-0.11981,-0.79099 0,-1.7 0,-2.52083c0,-0.96317 0,-1.82651 0,-2.722c0,-0.95717 0,-1.85718 0,-2.75717c0,-0.8 0,-1.7 0,-2.60001c0,-0.89999 -0.00067,-1.79999 0,-2.7c0.00067,-0.89867 0.28236,-1.65729 1.2,-1.7c0.89903,-0.04184 1.8,0 2.60001,0c0.89999,0 1.71678,0.16196 2.284,0.716c0.67374,0.6581 1.03825,1.32048 1.6205,1.98399c0.55548,0.633 1.66132,0.84253 2.174,1.5215c0.53442,0.70776 0.44402,1.91692 -0.04517,2.61183c-0.50333,0.71503 -1.19545,1.1031 -1.83333,1.66667c-0.58348,0.51552 -0.52303,1.3689 -1.05716,2.14284c-0.40419,0.58566 -1.3654,-0.32835 -2.24284,-0.58568c-0.86417,-0.25343 -1.6714,-0.41302 -1.7,-1.35716c-0.02724,-0.89958 0,-1.8 0,-2.7c0,-0.528 -0.03941,0.32854 0.5,1c0.48761,0.60699 1.2045,0.9955 2.10001,1l0.89999,0" fill="none" id="svg_2" stroke="#00ff00" stroke-width="5"/>
   <path d="m118.5,46.5c0.80133,0 1.51028,0.3187 2.33333,0.83333c0.59981,0.37505 1.62221,0.42926 2.36217,0.81401c0.76247,0.39645 1.36963,1.14037 2.16583,1.31667c0.94966,0.21028 1.61307,0.26921 2.308,0.752c0.73717,0.51213 1.851,0.44656 2.42001,0.89467c0.77536,0.61061 1.5316,1.01004 2.24399,1.556c0.66142,0.5069 1.39182,0.73528 2.10533,1.25867c0.67149,0.49257 1.31763,1.11328 1.62534,1.75999c0.48213,1.01329 0.93243,1.52238 1.73067,1.86734c0.74553,0.32217 0.70601,1.34732 0.70534,2.24733c-0.00067,0.89867 -0.36212,1.63643 -1,2.2c-0.58348,0.51552 -0.87997,1.33995 -1.52083,1.97917c-0.64359,0.64194 -1.60321,0.7139 -2.17917,1.22533c-0.73227,0.65021 -1.49698,1.25279 -2.40001,1.2955c-0.89899,0.04253 -1.7,0 -2.59999,0c-0.90001,0 -1.8,0.00224 -2.7,0c-0.90002,-0.00226 -1.86662,-0.08476 -2.31467,-0.80133c-0.49916,-0.79832 -0.29074,-1.79869 -0.28534,-2.69867c0.00534,-0.88937 0.52065,-1.48958 1.39999,-1.5c0.89995,-0.01067 2.07965,-0.32538 2.54285,0.35716c0.47437,0.69901 0.05716,1.74284 0.05716,2.64284c0,0.8 0,1.7 0,2.60001c0,0.89999 0,1.79999 0,2.7c0,0.89999 0,1.8 0,2.7c0,0.8 -0.05278,1.85568 -1,2c-0.79088,0.1205 -1.72333,0.14664 -2.38933,-0.436c-0.69783,-0.61049 -0.29172,-1.86172 -0.89601,-2.48c-0.60808,-0.62215 -1.43529,-0.82278 -1.66199,-1.73666c-0.21045,-0.84839 -0.66995,-1.62543 -0.96735,-2.54733c-0.27754,-0.86038 -0.08533,-1.8 -0.08533,-2.60001c0,-0.89999 0,-1.8 0,-2.7c0,-0.91066 0,-1.82133 0,-2.5c0,-0.9785 0,-2 0,-2.8c0,-0.89999 0,-1.8 0,-2.7c0,-0.89999 0,-1.8 0,-2.7c0,-0.89967 0,-1.25833 0,-0.40001c0,0.90001 0,1.80267 0,2.57068c0,1.03467 0,1.77866 0,2.88632c0,0.72166 0,1.66383 0,2.627c0,0.69067 0,1.75883 0,2.61601c0,0.89999 0,1.7 0,2.59999c0,0.90001 0,1.82083 0,2.784c0,0.69067 -0.30125,2.02618 0.35716,2.45885c0.78542,0.51613 1.60576,-0.38956 1.64301,-1.26401c0.03482,-0.81755 0.59662,-1.52501 0.91583,-2.2495c0.34248,-0.7773 0.37468,-1.8255 0.65866,-2.59334c0.35097,-0.94897 0.48215,-1.62608 1.13068,-2.48866c0.41182,-0.54774 1.16139,-1.30101 1.28566,-2.10001c0.13832,-0.8894 0.03198,-1.79108 0.43434,-2.61133c0.4269,-0.87029 0.85962,-1.69556 1.222,-2.336c0.46442,-0.82079 1.17181,-1.3515 1.35133,-2.10133c0.21361,-0.89221 0.45966,-1.19867 -0.39867,-1.19867c-0.90001,0 -1.8,0 -2.70001,0c-0.89999,0 -1.7,0 -2.59999,0c-0.90001,0 -1.8,0 -2.7,0c-0.90001,0 -1.8,0 -2.70001,0c-0.89999,0 -1.81494,0.15269 -1.89867,0.88667c-0.10638,0.93262 -0.00133,1.94666 -0.00133,2.80882c0,0.8045 0,1.7045 0,2.60451c0,0.89999 0,1.8 0,2.7c0,0.8 -0.0168,1.70015 0,2.60001c0.01801,0.96449 0.8456,0.99399 1.564,1.472c0.73289,0.48767 1.35915,1.3418 1.34933,2.21066c-0.00471,0.41817 -0.88474,-0.58131 -0.91333,-1.48267c-0.02855,-0.89972 0.07869,-1.68958 -0.01067,-2.61467c-0.08327,-0.86215 -1.11632,-1.23409 -1.55333,-1.832c-0.53566,-0.73291 -0.43375,-1.70065 -0.436,-2.59616c-0.00241,-0.95717 0,-1.85718 0,-2.75717c0,-0.8 0,-1.7 0,-2.60001c0,-0.89999 -0.00067,-1.79999 0,-2.7c0.00067,-0.89867 0.35571,-1.67148 1.2,-1.7c0.89932,-0.03038 1.75728,0.282 1.8,1.10001c0.04694,0.89877 -0.02724,1.70041 0,2.59999c0.02859,0.94414 0.63092,1.68494 1.33333,2.13333c0.59238,0.37816 1.78134,0.16667 2.66667,0.16667c0.8,0 1.7,0 2.60001,0c0.89999,0 1.79999,-0.00067 2.7,0c0.89867,0.00067 1.60788,0.38507 2.12534,0.97467c0.55969,0.63774 1.27916,1.078 2.05383,1.54616l0.45917,0.77467l-0.37434,0.6685" fill="none" id="svg_6" stroke="#00ff00" stroke-width="5"/>
   <path d="m132.5,57.5c-0.87849,1.2215 -0.60832,2.37901 -1.28534,2.91467c-0.64226,0.50816 -1.50238,0.39178 -1.71599,1.284c-0.17952,0.74983 -0.98315,1.21785 -1.49867,1.80133c-0.56357,0.63788 -1.44466,1.41591 -2.14284,0.94284c-0.68288,-0.46269 -0.35716,-1.64284 -0.35716,-2.54285c0,-0.89999 0,-1.81065 0,-2.72133c0,-0.85333 0,-1.79333 0,-2.67867c0,-0.8 -0.41272,-1.82343 0.05716,-2.64284c0.39442,-0.68784 1.15755,-1.29507 1.91484,-1.35583c1.03003,-0.08266 1.77733,-0.00133 2.69467,-0.00133c0.91199,0 1.83333,0 2.73332,0c0.90001,0 1.8,0 2.70001,0c0.89999,0 1.7002,-0.01874 2.59999,0c0.86456,0.01801 1.1808,0.83914 1.82083,1.47917c0.64003,0.64003 1.46117,0.95627 1.47917,1.82083c0.01874,0.8998 0.31911,1.99786 -0.28534,2.616c-0.60838,0.62215 -1.4416,0.84721 -2.36732,1.02684c-0.8493,0.16479 -1.722,0.05716 -2.66884,0.05716c-0.88916,0 -1.87833,0 -2.65767,0c-0.85416,0 -1.71632,0 -2.62083,0c-0.89999,0 -1.79999,0.00067 -2.7,0c-0.89867,-0.00067 -1.6442,-0.35841 -1.98267,-1.19867c-0.30022,-0.7453 0.58267,-0.80133 1.48267,-0.80133c0.90001,0 1.8,0 2.60001,0c0.89999,0 1.8,0 2.7,0c0.89999,0 1.791,0 1.791,0c-0.89101,0 -1.791,0 -2.69099,0c-0.90001,0 -1.8,0 -2.70001,0c-0.89999,0 -1.92009,-0.21339 -1.89983,-1.10001c0.0209,-0.91502 0.42387,-1.59042 0.99983,-2.37917c0.46753,-0.64027 0.88216,-1.35861 1.52083,-2c0.64032,-0.64305 1.41141,-0.95836 1.47467,-1.87267c0.0612,-0.88441 0.3932,-1.66595 1.0045,-2.14816c0.6138,-0.48419 1.0173,0.3015 1,1.2c-0.01733,0.90056 -0.61292,1.61209 -0.91467,2.5c-0.25888,0.76175 -0.00316,1.74785 -0.696,2.364c-0.65782,0.58501 -1.41466,1.01067 -2.03667,1.48868l-0.35133,0.74866l-0.00133,0.89867l0,0.90001" fill="none" id="svg_8" stroke="#00ff00" stroke-width="5"/>
   <path d="m134.5,85.5c1,0 1.8,0 2.7,0c0.90001,0 1.86958,0.11145 2.60001,-0.35716c0.79991,-0.5132 1.36414,-1.10196 2.08932,-1.61751c0.71263,-0.50661 1.25464,-1.07999 1.69467,-1.82666c0.41284,-0.70055 0.88741,-1.49731 0.916,-2.39867c0.02853,-0.89955 0,-1.8 0,-2.60001c0,-0.89999 0.00241,-1.81987 -0.42534,-2.59999c-0.4512,-0.82291 -1.57983,-1.64473 -1.24133,-2.43333c0.30946,-0.72098 1.66667,-0.16667 2.46667,-0.16667c0.89999,0 1.8,0 2.7,0c0.89999,0 1.8,0 2.7,0c0.90001,0 1.8,0 2.60001,0c0.89999,0 1.8,0 2.7,0c0.89999,0 1.80655,-0.10706 2.7,0.00133c0.91965,0.11156 1.64516,0.76649 1.78934,1.59868c0.15364,0.88684 0.01067,1.79999 0.01067,2.7c0,0.89999 0.00446,1.80019 0,2.58533c-0.00534,0.94005 -0.15868,1.95218 -0.5,2.59384c-0.43716,0.82182 -1.10495,1.40594 -1.44733,2.23067c-0.24945,0.60086 -0.46037,1.68044 -1.05267,2.29016c-0.57378,0.59067 -1.51266,0.96727 -2.02083,1.52083c-0.58968,0.64235 -1.29918,1.24242 -2.222,1.42201c-0.94121,0.18318 -1.85718,0.05716 -2.75717,0.05716c-0.8,0 -1.75571,0.03133 -2.39999,-0.436c-0.78102,-0.56651 -1.3,-1.26399 -1.90001,-1.864c-0.7,-0.7 -1.33504,-1.26697 -1.89867,-1.89999c-0.67906,-0.76266 -0.8777,-1.48752 -1.30133,-2.32083c-0.40128,-0.78934 -0.49466,-1.65379 -0.5,-2.59384c-0.00502,-0.88531 -0.09027,-1.64728 0.01067,-2.7c0.08267,-0.86221 0.80858,-1.23987 1.51016,-1.70616c0.8228,-0.54686 1.44936,-1.04106 2.45784,-1.35783c0.75687,-0.23773 1.66023,-0.50882 2.36867,-0.76868c0.99971,-0.3667 1.85266,-0.35266 2.75284,-0.35266c0.78516,0 1.72545,-0.02397 2.73315,0c0.75665,0.01801 1.56111,0.43451 2.36534,0.916c0.74361,0.44519 1.3338,0.96455 1.80133,1.60483c0.57596,0.78874 1.33247,1.83792 0.71466,2.39384c-0.68385,0.61537 -1.59999,0.08533 -2.55066,0.08533c-0.76534,0 -1.75951,0 -2.67867,0c-0.96451,0 -1.88533,0 -2.78984,0c-0.86217,0 -1.93263,0.37953 -2.52483,-0.28534c-0.61815,-0.69402 -0.52666,-1.68561 -0.368,-1.71466c0.88264,-0.16164 1.79733,0 2.69733,0c0.89999,0 1.8,0 2.7,0c0.90001,0 1.8,0 2.60001,0c0.89999,0 1.8,0 2.7,0c0.87866,0 0.612,0 -0.32533,0c-0.69067,0 -1.67467,0 -2.66,0c-0.72533,0 -1.71466,0 -2.51466,0c-1,0 -1.82486,-0.14516 -2.83333,0.16667c-0.72995,0.22571 -1.70796,0.72273 -2.41734,0.808c-0.74272,0.08928 -1.74219,0.38179 -2.54666,0.74133c-0.77414,0.34599 -2.661,-0.67433 -2.661,0.284c0,0.45833 1.2155,0 2.11549,0c0.74733,0 1.7415,0 2.68567,0c0.9045,0 1.82384,0 2.69884,0c0.64499,0 1.64099,0 2.4375,0c1.1875,0 2.03314,0.0918 2.82533,-0.35716c0.63614,-0.36052 1.49892,-1.08347 2.2115,-1.3575c0.91898,-0.35339 1.42059,-1.06012 2.18849,-1.28084c0.86067,-0.24738 2.38599,-0.83456 2.67416,-0.0045c0.06052,0.1743 -1.04056,0.69989 -1.55333,1.18533c-0.67099,0.63522 -1.30939,1.35625 -2.15866,1.81467c-0.64761,0.34956 -1.44633,0.53662 -2.33334,1c-0.84558,0.44174 -1.50932,0.98541 -2.15866,1.41066c-0.7011,0.45915 -1.35193,1.28917 -1.87016,1.8795c-0.6317,0.71959 -1.61139,1.05959 -2.3045,1.70984c-0.50507,0.47383 -1.29865,0.97141 -2.2,1c-0.89955,0.02853 -1.8,0 -2.60001,0c-0.89999,0 -1.8002,0.01913 -2.7,0c-0.97984,-0.02084 -1.47018,-0.70842 -1.49867,-1.51733c-0.03386,-0.96124 -0.26343,-1.92578 0.01218,-2.78267c0.261,-0.81151 1.27258,-1.12589 2.04283,-1.34283c1.00974,-0.28441 1.7166,-0.27754 2.54233,-0.44116c1.02126,-0.20238 1.62094,-0.56381 2.82268,-0.79466c0.52612,-0.10107 1.36679,-0.06828 2.41199,-0.28801c0.94814,-0.19933 1.55913,-0.54404 2.56534,-1.032c0.76306,-0.37004 1.58957,-0.64188 2.354,-0.854c0.91824,-0.25482 1.6367,-0.65877 2.64732,-0.86333c0.7914,-0.16019 1.84317,-0.21275 2.55833,-0.60483c0.86513,-0.4743 1.21136,-1.30397 1.92834,-1.56317c0.94278,-0.34084 1.62943,-0.71719 2.35616,-1.2115c0.85712,-0.58299 1.52245,-0.97794 1.92384,-1.7045c0.42688,-0.77267 1.34283,-1.18146 1.71182,-2.10001c0.33852,-0.84271 0.12151,-1.7 0.12151,-2.59999c0,-0.88567 0.04779,-0.19873 0,0.7c-0.04272,0.80341 -0.61238,1.58223 -0.97467,2.39999c-0.34763,0.78465 -0.93858,1.30917 -1.5045,2.12083c-0.51173,0.73395 -0.42517,1.74936 -0.96367,2.45767c-0.4628,0.60873 -1.55952,1.0937 -2.1465,1.62151c-0.63658,0.5724 -1.13475,1.28267 -1.396,2.22533c-0.19089,0.6888 -0.72046,1.42329 -1.3665,1.87016c-0.88551,0.6125 -1.44682,1.10451 -2.14816,1.8045c-0.70134,0.7 -1.22717,1.24681 -1.98399,1.69867c-0.83362,0.49771 -1.80356,0.6722 -2.46783,1.15399c-0.6759,0.49023 -1.40001,0.64508 -2.4335,0.64734c-0.948,0.00206 -1.62001,0 -2.364,0c-1.10767,0 -1.94167,0 -2.85068,0c-0.89999,0 -1.84712,0.28224 -2.6955,-0.0045c-0.81163,-0.27432 -0.70517,-1.39549 -0.7045,-2.2955c0.00067,-0.89867 0.30074,-1.57103 1.16667,-1.86667c0.84938,-0.28999 1.78554,-0.41125 2.47166,-0.886c0.66154,-0.45775 1.03531,-1.32149 1.879,-1.66199c0.93036,-0.37547 1.71906,-0.74727 2.48267,-1.11867c0.75391,-0.36668 1.58234,-0.77882 2.39999,-1.14134c0.78343,-0.34734 1.43333,-1.02533 1.76933,-1.73999l0.8515,-0.26451l0.9575,-0.02066" fill="none" id="svg_10" stroke="#ffffff" stroke-width="5"/>
   <path d="m163.5,78.5c-1.2215,0.87849 -2.16612,0.78935 -3,1.16667c-0.65396,0.29591 -1.05666,1.2585 -1.57466,1.85866c-0.54265,0.62872 -0.96295,1.42714 -1.72084,1.922c-0.6954,0.45406 -1.03108,1.25584 -1.75717,1.70001c-0.68457,0.41878 -0.94666,-0.53401 -0.94733,-1.48334c-0.00053,-0.76534 -0.00053,-1.76401 0,-2.564c0.00067,-1 -0.05472,-1.82117 0.2215,-2.79984c0.22676,-0.80347 0.74394,-1.6618 1.2785,-2.27934c0.56516,-0.65288 1.22046,-1.26431 1.7,-2.00349c0.41817,-0.64458 1.11806,-1.36835 1.96667,-1.68401c0.84866,-0.31567 1.64479,-0.8643 2.3125,-1.3125c0.70078,-0.47038 1.68886,-0.68408 2.34616,-0.94617c1.0101,-0.40276 1.76401,-0.564 2.67467,-0.57466l0.89999,0l0.90001,0" fill="none" id="svg_11" stroke="#ffffff" stroke-width="5"/>
  </g>
  <line fill="none" id="svg_12" stroke="#00e5ff" stroke-width="5" x1="105.25" x2="102.25" y1="-230.59375" y2="-228.59375"/>
  <line fill="none" id="svg_17" stroke="#ffffff" stroke-width="5" x1="196" x2="197" y1="19" y2="85"/>
 </g>
</svg>
